<svg id="Capa_1" data-name="Capa 1" xmlns="http://www.w3.org/2000/svg" viewBox="0 0 644.3 198.86"><defs><style>.cls-1,.cls-2{fill:#fff}.cls-2{fill-rule:evenodd}</style></defs><path class="cls-1" d="M143.59 161.33a49 49 0 01-19-3.69A47.51 47.51 0 0195 113.3a46.32 46.32 0 013.82-18.82 47 47 0 0110.6-15.2 48.49 48.49 0 0115.88-10.13 52 52 0 0119.48-3.62 53.06 53.06 0 0121.77 4.34 44.63 44.63 0 0116.26 12l-14.08 14.06a29.28 29.28 0 00-10.53-8.69 31.36 31.36 0 00-13.69-2.9 29.33 29.33 0 00-14.6 3.66 25.77 25.77 0 00-10.07 10.1 30.71 30.71 0 00-3.62 15.2 31.5 31.5 0 003.56 15.26 26.1 26.1 0 009.73 10.27 27.29 27.29 0 0014.22 3.68 28.9 28.9 0 0013.88-3.09 21.19 21.19 0 008.81-8.95 30.2 30.2 0 003.09-14.28l13.69 9.21-41.45-.66v-17.49h48.82v3q0 16.71-6 28.1A40.51 40.51 0 01168 155.54a50.07 50.07 0 01-24.41 5.79zm86.07 0a32.65 32.65 0 01-15.6-3.62 26.65 26.65 0 01-10.59-10 28 28 0 01-3.82-14.71V95.93h20.13v36.84a13.22 13.22 0 001.12 5.66 8.21 8.21 0 003.36 3.68 10.44 10.44 0 005.4 1.32 9.24 9.24 0 007.1-2.83c1.75-1.89 2.63-4.49 2.63-7.83V95.93h20.13v37a28.35 28.35 0 01-3.81 14.81 26.89 26.89 0 01-10.53 10 32.22 32.22 0 01-15.52 3.59zm52.63-74.22a10.35 10.35 0 01-7.83-3.23 11.54 11.54 0 010-15.72 10.47 10.47 0 017.83-3.16 10.27 10.27 0 017.76 3.16 11.71 11.71 0 010 15.72 10.15 10.15 0 01-7.76 3.23zm-10.14 72.77V95.93h20.14v63.95zM301.1 113V95.93h49.09V113zm14.48 46.85V69.48h20.13v90.4zm68.82 1.35a29 29 0 01-15.73-4.34A31.06 31.06 0 01357.75 145a35.64 35.64 0 01-4-17.11 35.62 35.62 0 014-17.1A31 31 0 01368.67 99a29 29 0 0115.73-4.34 26.51 26.51 0 0111.65 2.5 22.65 22.65 0 018.48 6.91 18.56 18.56 0 013.69 10.07v27.63a18.92 18.92 0 01-3.62 10.07 22 22 0 01-8.49 6.91 27 27 0 01-11.71 2.45zm4.08-18.2a13.45 13.45 0 0010.39-4.28 15.36 15.36 0 004-10.86 16.93 16.93 0 00-1.78-7.89 13.12 13.12 0 00-5-5.33 15.43 15.43 0 00-14.87 0A14 14 0 00376 120a17.33 17.33 0 00-.06 15.66 13.72 13.72 0 005.13 5.39 14 14 0 007.41 1.95zM402 159.88v-17.24l3-15.52-3-15.53V95.93h19.75v63.95zm34 0V95.93h20.13v63.95zm20.13-35.14l-8.42-6.58q2.51-11.18 8.42-17.37c4-4.12 9.43-6.18 16.45-6.18a21.92 21.92 0 018.1 1.38 16.29 16.29 0 016.11 4.28l-12 15.13a8.73 8.73 0 00-3.29-2.23 11.87 11.87 0 00-4.47-.79 10.49 10.49 0 00-8 3.09q-2.92 3.09-2.92 9.27zM95 213.35v-32h7.11v32zm13.3 0v-32h5l2.12 6.39v25.59zm22.06 0l-18.84-24.14 1.77-7.84 18.84 24.14zm0 0l-1.9-6.39v-25.59h7.11v32zm20.33.5a16.42 16.42 0 01-6.77-1.29 16 16 0 01-5.18-3.92l4.62-4.58a11.46 11.46 0 003.42 2.74 9.35 9.35 0 004.37 1 6.33 6.33 0 003.51-.82 2.56 2.56 0 001.24-2.26 2.88 2.88 0 00-.81-2.13 7.08 7.08 0 00-2.15-1.4c-.9-.4-1.88-.77-2.95-1.14s-2.13-.77-3.19-1.24a13.3 13.3 0 01-2.92-1.77 8 8 0 01-2.15-2.67A9 9 0 01146.3 182a14.45 14.45 0 015.84-1.11 15.7 15.7 0 016.14 1.17 12.66 12.66 0 014.6 3.22l-4.62 4.57a11.14 11.14 0 00-2.92-2.22 7.47 7.47 0 00-3.33-.72 5.39 5.39 0 00-2.95.7 2.27 2.27 0 00-1.08 2 2.56 2.56 0 00.81 2 7.13 7.13 0 002.15 1.29c.89.36 1.87.72 2.95 1.08s2.13.79 3.19 1.27a13.54 13.54 0 012.92 1.83 8.29 8.29 0 012.15 2.81 9.6 9.6 0 01.82 4.19 8.69 8.69 0 01-3.26 7.18c-2.18 1.74-5.18 2.59-9.02 2.59zm13.46-26.27v-6.21h27.13v6.21zm10 25.77v-31.52h7.11v31.52zm21.11 0v-32h7.11v32zm5.44-13.18v-5.25h6.74a4.65 4.65 0 003.29-1.09 4.26 4.26 0 000-5.8 4.44 4.44 0 00-3.26-1.13h-6.77v-5.53h7.6a12.35 12.35 0 015.58 1.2 9.37 9.37 0 013.76 3.33 9.59 9.59 0 010 9.81 9.14 9.14 0 01-3.81 3.28 13.06 13.06 0 01-5.75 1.18zm12 13.18l-10-13.77 6.52-1.77 11.87 15.54zm24.23.5a14.06 14.06 0 01-7-1.68 12.14 12.14 0 01-4.71-4.64 13.42 13.42 0 01-1.69-6.77v-19.39h7.15v19.8a6.39 6.39 0 00.82 3.3 5.46 5.46 0 002.24 2.15 6.66 6.66 0 003.15.75 6.46 6.46 0 003.17-.75 5.5 5.5 0 002.15-2.13 6.45 6.45 0 00.79-3.28v-19.84h7.16v19.43a13.36 13.36 0 01-1.68 6.75 12 12 0 01-4.66 4.62 13.94 13.94 0 01-6.89 1.68zm18.93-.5v-32h5.07L273.52 201h-2.58l12.55-19.61h5.11v32h-7.11v-20l1.27.31-8.2 12.77h-4.71l-8.15-12.77 1.22-.31v20zm38.86 0v-32h7.11v32zm5.43-25.86v-6.12h17.3v6.12zm0 12.5v-5.94h15.94V200zm0 13.36v-6.16h17.53v6.16zm22.42 0v-32h5l2.13 6.39v25.59zm22.06 0l-18.85-24.14 1.77-7.84 18.84 24.14zm0 0l-1.91-6.35v-25.63h7.11v32zm9.19-25.77v-6.21H381v6.21zm10 25.77v-31.52h7.11v31.52zm34.7.54a17.17 17.17 0 01-6.68-1.27 16.65 16.65 0 01-5.37-3.53 15.91 15.91 0 01-3.57-5.28 17.29 17.29 0 010-13 16.09 16.09 0 013.53-5.24 16.33 16.33 0 015.32-3.49 18.51 18.51 0 0113.32 0 16.74 16.74 0 015.34 3.49 16 16 0 013.55 5.26 17.37 17.37 0 010 13 15.92 15.92 0 01-3.53 5.25 16.22 16.22 0 01-5.32 3.51 16.93 16.93 0 01-6.59 1.3zm-.09-6.48a9.7 9.7 0 005-1.26 8.55 8.55 0 003.33-3.56 11.28 11.28 0 001.18-5.27 11.79 11.79 0 00-.68-4.1 9 9 0 00-1.95-3.17 8.46 8.46 0 00-3-2 10.22 10.22 0 00-3.87-.71 9.86 9.86 0 00-5 1.25 8.47 8.47 0 00-3.34 3.41 11.12 11.12 0 00-1.18 5.28 12 12 0 00.68 4.12 9.32 9.32 0 001.92 3.19 8.41 8.41 0 003 2.06 10.17 10.17 0 003.91.76zm30.21 6.44a16.35 16.35 0 01-6.77-1.29 15.91 15.91 0 01-5.19-3.92l4.62-4.58a11.58 11.58 0 003.42 2.74 9.35 9.35 0 004.37 1 6.33 6.33 0 003.51-.82 2.57 2.57 0 001.25-2.26 2.89 2.89 0 00-.82-2.13 7 7 0 00-2.15-1.4c-.89-.4-1.87-.77-2.95-1.14s-2.13-.77-3.19-1.24a13.3 13.3 0 01-2.92-1.77 8 8 0 01-2.15-2.67 9 9 0 014.57-12.37 14.47 14.47 0 015.85-1.11 15.65 15.65 0 016.13 1.17 12.66 12.66 0 014.6 3.22l-4.62 4.57a11.14 11.14 0 00-2.92-2.22 7.47 7.47 0 00-3.33-.72 5.33 5.33 0 00-2.94.7 2.25 2.25 0 00-1.09 2 2.56 2.56 0 00.81 2 7.13 7.13 0 002.15 1.29c.9.36 1.88.72 2.95 1.08s2.14.79 3.19 1.27a13.54 13.54 0 012.92 1.83 8.29 8.29 0 012.15 2.81 9.6 9.6 0 01.82 4.19 8.69 8.69 0 01-3.26 7.18q-3.27 2.59-9.01 2.59zm24.77-9.02v-6.07h16v6.07zm45.33 9.02a17.43 17.43 0 01-6.63-1.25 16.13 16.13 0 01-8.9-8.79 17.24 17.24 0 010-13 15.88 15.88 0 013.53-5.24 16.42 16.42 0 015.32-3.46 18.89 18.89 0 0113.41 0 16.38 16.38 0 015.19 3.35l-4.76 4.8a9.1 9.1 0 00-3.06-2.13 10.44 10.44 0 00-4.14-.77 10.12 10.12 0 00-3.83.7 8.37 8.37 0 00-3 2 9.41 9.41 0 00-1.95 3.17 12.36 12.36 0 000 8.2 9.51 9.51 0 001.95 3.17 8.66 8.66 0 003 2 9.76 9.76 0 003.83.73 10.91 10.91 0 004.26-.77 9.41 9.41 0 003.12-2.13l4.8 4.8a17.5 17.5 0 01-5.28 3.35 17.76 17.76 0 01-6.86 1.27zm28.9 0a14 14 0 01-6.95-1.68 12 12 0 01-4.71-4.64 13.43 13.43 0 01-1.7-6.77v-19.39h7.16v19.8a6.48 6.48 0 00.81 3.3 5.46 5.46 0 002.24 2.15 6.66 6.66 0 003.15.75 6.43 6.43 0 003.17-.75 5.44 5.44 0 002.15-2.13 6.45 6.45 0 00.8-3.28v-19.84h7.15v19.43a13.36 13.36 0 01-1.68 6.75 12 12 0 01-4.66 4.62 13.89 13.89 0 01-6.93 1.68zm18.93-.5v-32h7.11v32zm5.43-13.18v-5.25h6.74a4.65 4.65 0 003.29-1.09 4.26 4.26 0 000-5.8 4.44 4.44 0 00-3.26-1.13H552v-5.53h7.6a12.35 12.35 0 015.58 1.2 9.27 9.27 0 013.75 3.33 9.53 9.53 0 010 9.81 9 9 0 01-3.8 3.28 13.06 13.06 0 01-5.75 1.18zm12 13.18l-10-13.77 6.52-1.77 11.87 15.54zm20.3.5a16.35 16.35 0 01-6.77-1.29 15.91 15.91 0 01-5.19-3.92l4.62-4.58a11.58 11.58 0 003.42 2.74 9.35 9.35 0 004.37 1 6.33 6.33 0 003.51-.82 2.57 2.57 0 001.25-2.26 2.89 2.89 0 00-.82-2.13 7 7 0 00-2.15-1.4c-.89-.4-1.87-.77-2.95-1.14s-2.13-.77-3.19-1.24a13.3 13.3 0 01-2.92-1.77 8 8 0 01-2.15-2.67A9 9 0 01579.9 182a14.47 14.47 0 015.85-1.11 15.65 15.65 0 016.13 1.17 12.66 12.66 0 014.6 3.22l-4.62 4.57a11.14 11.14 0 00-2.92-2.22 7.47 7.47 0 00-3.33-.72 5.33 5.33 0 00-2.94.7 2.25 2.25 0 00-1.09 2 2.56 2.56 0 00.81 2 7.13 7.13 0 002.15 1.29c.9.36 1.88.72 3 1.08s2.14.79 3.19 1.27a13.54 13.54 0 012.92 1.83 8.29 8.29 0 012.15 2.81 9.6 9.6 0 01.82 4.19 8.69 8.69 0 01-3.26 7.18q-3.36 2.59-9.06 2.59zm32.33.04a17.21 17.21 0 01-6.68-1.27 16.61 16.61 0 01-5.36-3.53 15.93 15.93 0 01-3.58-5.28 17.29 17.29 0 010-13 16.09 16.09 0 013.53-5.24 16.33 16.33 0 015.32-3.49 18.51 18.51 0 0113.32 0 16.63 16.63 0 015.34 3.49 16 16 0 013.56 5.26 17.37 17.37 0 010 13 16.22 16.22 0 01-8.86 8.76 16.93 16.93 0 01-6.59 1.3zm-.09-6.48a9.76 9.76 0 005-1.26 8.67 8.67 0 003.33-3.56 11.4 11.4 0 001.17-5.27 11.56 11.56 0 00-.68-4.1 9.12 9.12 0 00-1.94-3.17 8.5 8.5 0 00-3-2 10.22 10.22 0 00-3.87-.71 9.79 9.79 0 00-5 1.25 8.43 8.43 0 00-3.33 3.49 11.12 11.12 0 00-1.18 5.28 12 12 0 00.68 4.12 9.18 9.18 0 001.93 3.19 8.37 8.37 0 003 2.06 10.21 10.21 0 003.89.68zm30.21 6.44a16.39 16.39 0 01-6.77-1.29 15.91 15.91 0 01-5.19-3.92l4.62-4.58a11.71 11.71 0 003.42 2.74 9.38 9.38 0 004.37 1 6.33 6.33 0 003.51-.82 2.57 2.57 0 001.29-2.28 2.85 2.85 0 00-.82-2.13 7 7 0 00-2.15-1.4c-.89-.4-1.87-.77-2.94-1.14s-2.14-.77-3.19-1.24a13.3 13.3 0 01-2.92-1.77 8 8 0 01-2.16-2.67 9 9 0 014.54-12.35 14.45 14.45 0 015.84-1.11 15.73 15.73 0 016.14 1.17 12.62 12.62 0 014.59 3.22l-4.62 4.57a11 11 0 00-2.92-2.22 7.47 7.47 0 00-3.33-.72 5.38 5.38 0 00-2.94.7 2.25 2.25 0 00-1.09 2 2.54 2.54 0 00.82 2 7 7 0 002.15 1.29q1.34.54 2.94 1.08c1.07.37 2.14.79 3.2 1.27a13.78 13.78 0 012.92 1.83 8.29 8.29 0 012.15 2.81 9.75 9.75 0 01.81 4.19 8.66 8.66 0 01-3.26 7.18q-3.25 2.59-9.01 2.59z" transform="translate(-18.66 -16.75)"/><path class="cls-2" d="M28.32 123c-3-.05-5.7 4.71-5.37 12 .39 8.57 6.43 17.27 6.43 25.55 0 7.09-10.81 14.78-10.71 29.35.1 16.6 8.4 25.71 31.15 25.71s28.32-10.87 28.32-25c0-13-8.38-17.35-8.38-27.07 0-10.22 5.42-14.88 6.43-20.6 1.19-6.77-2.56-9.85-5.33-8.78-2.46 1-1.34 7.37-9.92 7.55-4.12.09-7.16-3.77-7.16-13.33s-9.64-10.6-10.22-1.22c-.18 2.78-1.06 8.14-6.81 8.17-6.4.01-4.61-12.22-8.43-12.33z" transform="translate(-18.66 -16.75)"/><path class="cls-2" d="M24.62 124.69h10.65l-1.85-89.64h-6.96l-1.84 89.64z"/><path class="cls-2" d="M59.24 42.62A61.86 61.86 0 0160 25.35c1.67-8.41-.47-13.15-5.12-2.27L43.74 49.2c-.44 1-1.17 1.46.31 3.55a4.71 4.71 0 011 2.35h7.09c0-1.18 1.37-4.32 3.87-6.42 1.54-1.3 3.39-4.22 3.23-6.06z" transform="translate(-18.66 -16.75)"/><path class="cls-1" transform="rotate(-66.84 31.414 32.302)" d="M52.94 24.84h1v3.38h-1z"/><path class="cls-2" d="M51.63 27.38l-1.08-.46c-.85-.76 0-2.71 1.13-2.63l1.07.46c.47.6-.37 2.56-1.12 2.63z" transform="translate(-18.66 -16.75)"/><path class="cls-1" transform="rotate(-66.83 29.605 36.523)" d="M51.13 29.06h1v3.38h-1z"/><path class="cls-2" d="M49.82 31.61l-1.08-.47c-.85-.76 0-2.71 1.13-2.63L51 29c.41.57-.43 2.53-1.18 2.61z" transform="translate(-18.66 -16.75)"/><path class="cls-1" transform="rotate(-66.82 27.805 40.75)" d="M49.33 33.28h1v3.38h-1z"/><path class="cls-2" d="M48 35.83l-1.07-.46c-.85-.76 0-2.72 1.12-2.63l1.08.46c.48.59-.36 2.55-1.13 2.63z" transform="translate(-18.66 -16.75)"/><path class="cls-1" transform="rotate(-66.85 25.995 44.966)" d="M47.52 37.5h1v3.38h-1z"/><path class="cls-2" d="M46.21 40.05l-1.08-.46c-.85-.76 0-2.72 1.13-2.63l1.07.46c.47.58-.33 2.58-1.12 2.63z" transform="translate(-18.66 -16.75)"/><path class="cls-1" transform="rotate(-66.83 24.187 49.188)" d="M45.72 41.73h1v3.38h-1z"/><path class="cls-2" d="M44.4 44.27l-1.08-.46c-.85-.76 0-2.72 1.13-2.63l1.08.46c.47.59-.38 2.56-1.13 2.63z" transform="translate(-18.66 -16.75)"/><path class="cls-1" transform="rotate(-66.83 22.379 53.412)" d="M43.91 45.95h1v3.38h-1z"/><path class="cls-2" d="M42.6 48.49L41.52 48c-.85-.76 0-2.72 1.12-2.63l1.08.46c.47.63-.37 2.59-1.12 2.66z" transform="translate(-18.66 -16.75)"/><path d="M499 159.62V65.93h26.31v93.69zm21.45 0v-22.37h43.82v22.37zm44.74 0l35.67-93.69h26.84l35.3 93.69h-27.4L609.41 80h9.47L592 159.62zm23.17-15.79V123.3h52.37v20.53z" transform="translate(-18.66 -16.75)" fill="#d88506"/></svg>